<svg xmlns="http://www.w3.org/2000/svg" xmlns:xlink="http://www.w3.org/1999/xlink" fill="none" version="1.1" width="50" height="50" viewBox="0 0 50 50"><defs><clipPath id="master_svg0_110_797"><rect x="0" y="0" width="50" height="50" rx="0"/></clipPath></defs><g clip-path="url(#master_svg0_110_797)"><path d="M16.153846858132326,0L35.57692589813232,0Q41.551157898132324,0,45.775580898132326,4.2244215Q50.00000289813232,8.448843,50.00000289813232,14.423078Q50.00000289813232,20.39731,45.775580898132326,24.621733Q45.58203189813233,24.815281,45.38477189813233,24.999998Q45.58202989813232,25.184711,45.775583898132325,25.378265Q50.00000289813232,29.602692,50.00000289813232,35.576923Q50.00000289813232,41.551155,45.775583898132325,45.775581Q41.82839289813232,49.722771,36.353508898132326,49.981808C35.92914689813232,50.001884,35.57692589813232,49.655605,35.57692589813232,49.23077L35.57692589813232,43.076923C35.57692589813232,42.652088,35.91627189813232,42.312786,36.338877898132324,42.269325Q38.63990489813233,42.032684,40.33629489813232,40.336292Q42.30769589813232,38.364899,42.30769589813232,35.576923Q42.30769589813232,32.788948,40.33629489813232,30.817549Q38.36489389813232,28.846155,35.57692589813232,28.846155L16.153846678132325,28.846155C15.729012308132324,28.846155,15.384615898132324,28.501757,15.384615898132324,28.076923L15.384615898132324,21.923077C15.384615898132324,21.498243,15.729012308132324,21.153847,16.153846858132326,21.153847L35.57692589813232,21.153847Q38.36489989813232,21.153847,40.336296898132325,19.182449Q42.30769589813232,17.211052,42.30769589813232,14.423078Q42.30769589813232,11.635102,40.336296898132325,9.6637049Q38.36489989813232,7.6923079,35.57692589813232,7.6923079L16.153846678132325,7.6923079C15.729012308132324,7.6923079,15.384615898132324,7.3479118,15.384615898132324,6.9230771L15.384615898132324,0.76923096C15.384615898132324,0.34439638,15.729012308132324,0,16.153846858132326,0Z" fill-rule="evenodd" fill="#FFFFFF" fill-opacity="1"/><path d="M5.7692318,0L6.9230776,0C7.3479128,0,7.6923084,0.34439638,7.6923084,0.7692309L7.6923079,28.846155L7.6923084,40C7.6923084,41.274502,8.7254972,42.307693,10.000001,42.307693L27.307693,42.307693C27.732527,42.307693,28.076923,42.652088,28.076923,43.076923L28.076923,49.23077C28.076923,49.655605,27.732527,50,27.307693,50L5.7692323,50C2.5829728,50,0,47.417027,0,44.23077L0,5.7692318C0,2.5829728,2.5829728,0,5.7692318,0Z" fill-rule="evenodd" fill="#3B82F6" fill-opacity="1"/></g></svg>